<?xml version="1.0" standalone="no"?>
<!DOCTYPE svg PUBLIC "-//W3C//DTD SVG 20010904//EN"
 "http://www.w3.org/TR/2001/REC-SVG-20010904/DTD/svg10.dtd">
<svg version="1.0" xmlns="http://www.w3.org/2000/svg"
 width="350.000000pt" height="350.000000pt" viewBox="0 0 350.000000 350.000000"
 preserveAspectRatio="xMidYMid meet">
<metadata>
Created by potrace 1.16, written by Peter Selinger 2001-2019
</metadata>
<g transform="translate(0.000000,350.000000) scale(0.100000,-0.100000)"
fill="#000000" stroke="none">
<path d="M1195 3483 c-83 -17 -196 -56 -238 -80 -63 -37 -72 -61 -75 -207 l-3
-132 -64 -28 c-36 -15 -90 -44 -122 -63 -32 -20 -93 -53 -136 -74 -142 -72
-196 -144 -164 -222 9 -20 31 -46 49 -58 30 -19 43 -20 153 -15 66 3 131 8
143 10 22 5 23 4 9 -17 -7 -12 -20 -32 -28 -45 -11 -18 -22 -22 -59 -21 -109
3 -180 -69 -180 -184 0 -54 2 -59 92 -196 15 -24 21 -46 19 -76 -6 -94 32
-506 55 -601 4 -16 -1 -24 -25 -34 -87 -36 -107 -129 -48 -218 34 -49 34 -49
17 -83 -29 -55 -78 -212 -102 -322 -19 -84 -22 -132 -22 -277 1 -204 16 -278
86 -421 l43 -87 -40 -6 c-122 -18 -118 -23 18 -24 l138 -1 -29 37 c-117 149
-161 297 -162 543 l0 136 154 -77 c244 -121 502 -201 762 -235 71 -9 138 -19
149 -21 13 -2 30 -23 48 -60 35 -70 106 -164 153 -202 32 -26 34 -29 28 -75
l-7 -47 43 0 c28 0 47 6 55 16 11 15 14 15 43 0 27 -14 69 -16 286 -16 230 1
255 3 259 18 4 15 5 15 6 -1 1 -15 11 -17 82 -15 57 1 75 4 59 10 -12 4 -25 6
-30 3 -4 -3 -10 12 -12 33 -5 35 0 42 66 112 92 97 165 235 180 342 3 18 8 52
12 75 4 27 2 54 -6 73 -20 48 -103 116 -180 147 l-70 28 0 52 0 51 68 -4 c37
-3 78 -6 92 -7 14 -1 24 3 23 9 -1 7 8 15 21 18 27 7 48 48 40 80 -3 14 1 27
10 35 21 18 20 60 -1 83 -15 17 -16 27 -6 85 12 69 6 99 -23 116 -8 4 -14 15
-14 23 0 9 -14 -1 -34 -25 -23 -28 -37 -57 -42 -86 -7 -47 -24 -62 -24 -21 0
30 -43 47 -94 39 l-34 -5 5 60 c5 50 2 68 -16 102 -19 38 -21 56 -21 243 0
111 5 222 11 247 6 25 11 92 12 150 1 88 -3 113 -21 154 l-22 48 20 25 c23 29
27 121 10 185 -11 39 -66 94 -109 109 -26 9 -26 11 -23 90 7 153 -44 280 -158
395 -65 66 -160 115 -270 139 -123 27 -121 25 -141 81 -52 139 -206 205 -472
203 -67 0 -153 -7 -192 -16z m-139 -902 c43 -11 147 -43 229 -71 297 -100 606
-180 700 -180 52 0 56 -8 46 -90 -18 -141 27 -313 105 -399 84 -94 233 -138
307 -92 19 12 38 28 41 36 3 10 -9 5 -34 -11 -50 -33 -127 -35 -194 -3 -143
67 -236 307 -195 499 11 50 11 50 49 50 101 0 219 79 271 181 16 33 35 59 43
59 22 0 79 -44 104 -80 20 -29 23 -44 20 -87 -3 -32 -12 -61 -23 -73 -17 -19
-19 -19 -36 -4 -10 9 -32 41 -49 70 -17 30 -32 54 -35 54 -9 0 35 -81 75 -140
57 -83 73 -139 73 -250 -1 -86 -10 -135 -38 -204 -6 -14 -5 -17 3 -12 9 5 12
-42 11 -191 0 -109 -4 -220 -7 -248 -6 -46 -10 -52 -47 -70 -34 -17 -61 -20
-180 -20 l-139 0 -56 -131 c-30 -71 -63 -149 -72 -173 l-17 -43 -120 153 c-67
84 -132 165 -146 181 l-25 28 -210 -6 c-186 -6 -210 -5 -215 9 -4 8 -10 55
-13 104 l-7 88 -49 3 c-27 2 -53 -1 -57 -5 -5 -5 -11 -49 -14 -98 -2 -48 -9
-93 -14 -98 -13 -13 -428 5 -441 19 -5 5 -15 81 -23 169 -48 517 -60 622 -73
645 -65 117 -81 193 -56 260 19 49 99 100 156 100 14 0 29 6 33 14 4 7 22 31
40 53 l32 39 84 -7 c46 -5 120 -17 163 -28z m208 -1253 c10 -92 8 -118 -11
-118 -13 -1 -10 -5 10 -16 15 -8 32 -26 37 -40 15 -39 12 -122 -7 -157 -15
-30 -15 -31 0 -18 16 12 17 4 17 -102 0 -132 3 -128 -90 -126 -77 2 -90 11
-90 62 l0 43 53 0 c68 0 107 23 107 63 0 16 -7 34 -15 41 -9 8 -15 9 -15 2 0
-6 5 -14 10 -17 17 -11 11 -43 -12 -59 -15 -11 -45 -16 -91 -16 -48 0 -73 -5
-84 -15 -17 -18 -51 -12 -71 14 -21 24 -11 184 15 241 19 43 53 83 53 62 0 -5
8 -9 17 -8 10 0 19 -6 21 -15 2 -12 -4 -15 -26 -11 -25 3 -30 0 -36 -23 -4
-15 -5 -29 -3 -32 3 -2 8 8 11 23 6 24 10 26 44 19 86 -15 118 -29 154 -65 21
-21 38 -32 38 -25 0 22 -68 74 -112 85 -24 6 -47 12 -51 13 -4 1 3 16 15 32
15 20 30 30 43 28 17 -3 17 -2 -2 7 -19 8 -23 17 -23 57 0 26 3 65 6 86 6 35
9 37 44 37 l37 0 7 -52z m1404 -84 c12 -4 22 -10 22 -15 0 -5 -6 -6 -13 -3
-31 12 -67 -71 -67 -154 0 -48 23 -112 40 -112 7 0 10 3 8 8 -43 83 -45 139
-7 201 17 28 55 42 71 26 8 -9 -32 -198 -48 -222 -11 -17 -22 -22 -45 -19 -17
1 -35 9 -40 17 -15 24 -11 176 6 216 26 61 33 67 73 57z m-382 -119 c13 -46
13 -58 1 -87 -8 -18 -21 -39 -30 -46 -15 -13 -43 -80 -35 -86 1 -2 15 -6 31
-10 25 -6 27 -4 27 28 0 21 12 54 31 85 30 48 31 52 20 97 -14 55 -9 66 14 30
25 -38 32 -112 12 -134 -18 -20 -47 -84 -47 -105 0 -9 16 -16 45 -20 96 -14
162 -90 173 -197 5 -57 -15 -100 -60 -128 -65 -40 -197 -74 -309 -79 -118 -6
-133 -2 -254 75 -68 43 -95 86 -95 147 l0 40 20 -33 c12 -20 37 -40 63 -51 23
-10 49 -26 57 -36 29 -35 69 -43 176 -36 56 3 107 11 115 18 8 7 46 17 84 23
129 21 194 88 155 161 -14 25 -74 55 -129 64 -42 7 -43 6 -36 -16 l6 -24 -18
23 c-15 18 -24 21 -51 16 -30 -6 -32 -9 -27 -35 5 -23 1 -34 -21 -54 -15 -14
-37 -25 -50 -25 -48 0 -72 -61 -36 -93 9 -8 33 -20 52 -25 34 -10 34 -10 -20
-11 -32 0 -50 3 -42 8 10 6 10 10 -3 21 -18 15 -20 71 -4 87 9 9 2 16 -25 27
-30 13 -36 20 -36 45 0 17 2 31 4 31 2 0 12 3 21 6 15 6 15 4 4 -15 -29 -45
35 -82 97 -56 42 17 45 48 7 72 -16 9 -34 23 -41 32 -11 13 -18 13 -65 -3 -28
-10 -63 -26 -77 -35 -14 -10 -52 -28 -85 -41 -33 -13 -67 -28 -75 -34 -13 -10
-13 -9 0 8 8 11 74 47 145 82 l130 62 1 46 c1 32 9 57 29 86 24 35 27 47 23
95 -3 30 -2 55 2 55 3 0 13 -13 23 -29 25 -42 22 -98 -8 -141 -13 -19 -28 -50
-31 -68 -6 -28 -4 -32 15 -32 16 0 21 6 21 28 0 15 16 52 36 82 34 52 35 58
30 118 -5 56 -4 62 9 52 9 -7 22 -36 31 -65z m-675 -672 c46 -43 144 -88 265
-120 92 -24 115 -27 309 -27 169 -1 226 3 295 18 119 25 226 69 290 117 36 27
47 33 31 15 -66 -71 -212 -133 -379 -161 -144 -24 -410 -17 -532 15 -168 43
-341 152 -340 213 1 19 3 18 14 -8 8 -16 29 -44 47 -62z"/>
<path d="M1345 2356 c-132 -61 -224 -252 -196 -408 37 -214 217 -337 437 -299
77 14 148 47 184 87 14 15 20 24 13 20 -8 -5 -10 8 -6 47 9 90 -38 147 -122
147 -26 0 -45 -9 -71 -33 -30 -28 -37 -42 -41 -83 -4 -40 0 -55 19 -84 13 -19
37 -41 53 -49 26 -13 27 -15 10 -21 -75 -28 -212 -17 -287 21 -120 61 -187
220 -159 374 21 113 82 201 186 267 67 42 57 50 -20 14z"/>
<path d="M2290 1992 c-73 -74 -33 -232 58 -232 43 0 89 42 103 93 32 119 -82
217 -161 139z"/>
<path d="M1964 1801 c-33 -10 -76 -28 -94 -41 -63 -45 -109 -147 -82 -186 12
-17 55 -44 72 -44 8 0 1 9 -17 20 -45 27 -54 48 -38 92 19 58 42 87 93 119 57
36 70 37 43 3 -28 -36 -26 -60 8 -95 25 -24 38 -29 80 -29 86 0 131 28 131 84
0 36 -27 68 -73 85 -35 14 -48 13 -123 -8z"/>
<path d="M2776 2228 c-3 -18 -8 -119 -12 -223 -8 -218 -8 -218 71 -229 25 -4
44 -10 41 -14 -8 -14 -66 -355 -61 -360 3 -3 5 -2 5 3 0 10 69 343 76 367 4
13 -3 18 -33 23 -79 13 -83 18 -82 87 1 79 23 335 29 342 3 2 48 -4 100 -15
52 -11 98 -18 103 -16 8 2 -209 68 -224 67 -4 0 -9 -15 -13 -32z"/>
<path d="M3105 2170 c39 -10 71 -19 72 -19 2 -1 -76 -224 -119 -344 -14 -38
-36 -48 -87 -36 -24 5 -45 8 -48 6 -3 -4 -65 -284 -82 -375 -17 -90 6 -24 55
156 l50 187 51 -3 c45 -3 53 -1 67 20 28 43 124 302 131 354 l7 51 -34 6 c-18
3 -55 8 -83 11 -47 5 -46 4 20 -14z"/>
</g>
</svg>
